G04 Layer_Color=65535*
%FSLAX44Y44*%
%MOMM*%
G71*
G01*
G75*
%ADD10C,0.2000*%
%ADD19C,0.2500*%
G36*
X887792Y677892D02*
X887860Y677885D01*
X887942Y677877D01*
X888032Y677870D01*
X888137Y677855D01*
X888354Y677810D01*
X888594Y677742D01*
X888721Y677697D01*
X888841Y677645D01*
X888969Y677585D01*
X889089Y677517D01*
X889096Y677510D01*
X889119Y677502D01*
X889148Y677480D01*
X889193Y677450D01*
X889246Y677405D01*
X889313Y677360D01*
X889381Y677308D01*
X889456Y677240D01*
X889531Y677173D01*
X889613Y677090D01*
X889696Y677000D01*
X889778Y676910D01*
X889853Y676806D01*
X889928Y676693D01*
X890070Y676453D01*
X890078Y676446D01*
X890085Y676423D01*
X890100Y676386D01*
X890123Y676333D01*
X890145Y676274D01*
X890175Y676191D01*
X890205Y676109D01*
X890242Y676011D01*
X890273Y675899D01*
X890303Y675779D01*
X890332Y675659D01*
X890355Y675524D01*
X890392Y675232D01*
X890407Y675075D01*
Y674917D01*
Y674910D01*
Y674887D01*
Y674850D01*
Y674797D01*
X890400Y674737D01*
Y674663D01*
X890392Y674580D01*
X890377Y674490D01*
X890355Y674295D01*
X890317Y674078D01*
X890265Y673853D01*
X890190Y673636D01*
Y673628D01*
X890183Y673614D01*
X890168Y673584D01*
X890153Y673539D01*
X890130Y673494D01*
X890100Y673434D01*
X890025Y673306D01*
X889935Y673149D01*
X889823Y672984D01*
X889688Y672819D01*
X889538Y672654D01*
X889546Y672647D01*
X889561Y672639D01*
X889591Y672617D01*
X889628Y672595D01*
X889673Y672564D01*
X889733Y672527D01*
X889860Y672452D01*
X890010Y672362D01*
X890175Y672272D01*
X890347Y672190D01*
X890520Y672122D01*
X890287Y671598D01*
X890280D01*
X890257Y671605D01*
X890228Y671620D01*
X890183Y671643D01*
X890123Y671665D01*
X890055Y671695D01*
X889980Y671733D01*
X889898Y671770D01*
X889710Y671868D01*
X889501Y671988D01*
X889283Y672130D01*
X889051Y672295D01*
X889044D01*
X889021Y672280D01*
X888991Y672265D01*
X888939Y672242D01*
X888879Y672212D01*
X888811Y672182D01*
X888729Y672152D01*
X888639Y672122D01*
X888534Y672085D01*
X888429Y672055D01*
X888309Y672025D01*
X888182Y671995D01*
X887920Y671958D01*
X887777Y671950D01*
X887635Y671943D01*
X887560D01*
X887500Y671950D01*
X887433Y671958D01*
X887358Y671965D01*
X887268Y671973D01*
X887163Y671988D01*
X886946Y672032D01*
X886706Y672100D01*
X886586Y672145D01*
X886466Y672197D01*
X886339Y672250D01*
X886219Y672317D01*
X886211Y672325D01*
X886189Y672332D01*
X886159Y672355D01*
X886114Y672385D01*
X886061Y672422D01*
X886002Y672475D01*
X885934Y672527D01*
X885859Y672587D01*
X885777Y672662D01*
X885702Y672737D01*
X885619Y672827D01*
X885537Y672924D01*
X885454Y673022D01*
X885380Y673134D01*
X885237Y673374D01*
Y673381D01*
X885222Y673404D01*
X885207Y673441D01*
X885185Y673494D01*
X885162Y673561D01*
X885132Y673636D01*
X885102Y673726D01*
X885072Y673823D01*
X885035Y673936D01*
X885005Y674056D01*
X884975Y674183D01*
X884952Y674318D01*
X884915Y674603D01*
X884908Y674760D01*
X884900Y674917D01*
Y674925D01*
Y674955D01*
Y675000D01*
X884908Y675060D01*
Y675135D01*
X884915Y675225D01*
X884930Y675322D01*
X884945Y675427D01*
X884960Y675547D01*
X884982Y675667D01*
X885042Y675929D01*
X885132Y676191D01*
X885185Y676326D01*
X885245Y676461D01*
X885252Y676468D01*
X885260Y676491D01*
X885282Y676528D01*
X885312Y676573D01*
X885342Y676633D01*
X885387Y676701D01*
X885440Y676776D01*
X885499Y676858D01*
X885634Y677030D01*
X885807Y677210D01*
X886002Y677383D01*
X886114Y677457D01*
X886226Y677532D01*
X886234Y677540D01*
X886256Y677547D01*
X886294Y677570D01*
X886339Y677592D01*
X886399Y677615D01*
X886473Y677652D01*
X886548Y677682D01*
X886646Y677720D01*
X886743Y677750D01*
X886856Y677787D01*
X886976Y677817D01*
X887095Y677840D01*
X887365Y677885D01*
X887508Y677892D01*
X887657Y677899D01*
X887732D01*
X887792Y677892D01*
D02*
G37*
G36*
X893809Y672040D02*
X893105D01*
Y676543D01*
X893090Y676536D01*
X893060Y676506D01*
X893000Y676453D01*
X892925Y676393D01*
X892828Y676319D01*
X892708Y676236D01*
X892580Y676146D01*
X892430Y676056D01*
X892423D01*
X892415Y676049D01*
X892393Y676034D01*
X892363Y676019D01*
X892281Y675974D01*
X892183Y675921D01*
X892071Y675861D01*
X891943Y675801D01*
X891816Y675742D01*
X891689Y675689D01*
Y676378D01*
X891696D01*
X891719Y676393D01*
X891749Y676408D01*
X891786Y676431D01*
X891839Y676453D01*
X891898Y676491D01*
X892041Y676566D01*
X892198Y676663D01*
X892378Y676783D01*
X892550Y676910D01*
X892723Y677053D01*
X892730Y677060D01*
X892745Y677068D01*
X892768Y677090D01*
X892798Y677120D01*
X892873Y677195D01*
X892970Y677300D01*
X893067Y677412D01*
X893172Y677547D01*
X893270Y677682D01*
X893352Y677825D01*
X893809D01*
Y672040D01*
D02*
G37*
G36*
X850804Y672982D02*
X850830Y672977D01*
X850862Y672966D01*
X850904Y672955D01*
X850957Y672934D01*
X851026Y672918D01*
X851180Y672871D01*
X851360Y672828D01*
X851572Y672786D01*
X851784Y672754D01*
X852006Y672733D01*
X852017D01*
X852033Y672728D01*
X852213D01*
X852356Y672733D01*
X852504Y672743D01*
X852674Y672765D01*
X852838Y672791D01*
X852997Y672833D01*
X853320Y672510D01*
X849230Y668420D01*
X848732Y668918D01*
X851916Y672102D01*
X851900Y672108D01*
X851858D01*
X851779Y672113D01*
X851683Y672123D01*
X851561Y672139D01*
X851418Y672166D01*
X851265Y672192D01*
X851095Y672235D01*
X851090Y672240D01*
X851079D01*
X851053Y672245D01*
X851021Y672256D01*
X850931Y672282D01*
X850825Y672314D01*
X850703Y672351D01*
X850571Y672399D01*
X850438Y672447D01*
X850311Y672500D01*
X850798Y672987D01*
X850804Y672982D01*
D02*
G37*
G36*
X993730Y659490D02*
X992996D01*
Y664315D01*
X991310Y659490D01*
X990628D01*
X988964Y664398D01*
Y659490D01*
X988230D01*
Y665252D01*
X989369D01*
X990733Y661168D01*
Y661161D01*
X990740Y661146D01*
X990748Y661116D01*
X990763Y661078D01*
X990778Y661026D01*
X990800Y660974D01*
X990837Y660846D01*
X990882Y660711D01*
X990928Y660569D01*
X990972Y660434D01*
X991010Y660314D01*
X991017Y660329D01*
X991032Y660374D01*
X991055Y660449D01*
X991085Y660546D01*
X991130Y660681D01*
X991182Y660839D01*
X991242Y661026D01*
X991317Y661243D01*
X992703Y665252D01*
X993730D01*
Y659490D01*
D02*
G37*
G36*
X514564Y535940D02*
X513860D01*
Y540443D01*
X513845Y540436D01*
X513815Y540406D01*
X513755Y540353D01*
X513680Y540293D01*
X513582Y540219D01*
X513462Y540136D01*
X513335Y540046D01*
X513185Y539956D01*
X513178D01*
X513170Y539949D01*
X513148Y539934D01*
X513118Y539919D01*
X513035Y539874D01*
X512938Y539821D01*
X512826Y539761D01*
X512698Y539701D01*
X512571Y539641D01*
X512444Y539589D01*
Y540278D01*
X512451D01*
X512473Y540293D01*
X512503Y540308D01*
X512541Y540331D01*
X512593Y540353D01*
X512653Y540391D01*
X512796Y540466D01*
X512953Y540563D01*
X513133Y540683D01*
X513305Y540810D01*
X513478Y540953D01*
X513485Y540960D01*
X513500Y540968D01*
X513522Y540990D01*
X513552Y541020D01*
X513627Y541095D01*
X513725Y541200D01*
X513822Y541312D01*
X513927Y541447D01*
X514025Y541582D01*
X514107Y541725D01*
X514564D01*
Y535940D01*
D02*
G37*
G36*
X510960D02*
X510225D01*
Y540765D01*
X508540Y535940D01*
X507858D01*
X506194Y540848D01*
Y535940D01*
X505460D01*
Y541702D01*
X506599D01*
X507963Y537618D01*
Y537611D01*
X507970Y537596D01*
X507978Y537566D01*
X507993Y537528D01*
X508008Y537476D01*
X508030Y537424D01*
X508068Y537296D01*
X508112Y537161D01*
X508158Y537019D01*
X508202Y536884D01*
X508240Y536764D01*
X508247Y536779D01*
X508262Y536824D01*
X508285Y536899D01*
X508315Y536996D01*
X508360Y537131D01*
X508412Y537289D01*
X508472Y537476D01*
X508547Y537693D01*
X509933Y541702D01*
X510960D01*
Y535940D01*
D02*
G37*
G36*
X996705Y665267D02*
X996779Y665260D01*
X996862Y665252D01*
X996952Y665237D01*
X997049Y665215D01*
X997259Y665162D01*
X997364Y665125D01*
X997476Y665080D01*
X997589Y665027D01*
X997694Y664960D01*
X997791Y664892D01*
X997888Y664810D01*
X997896Y664802D01*
X997911Y664788D01*
X997933Y664765D01*
X997963Y664728D01*
X998001Y664683D01*
X998046Y664630D01*
X998083Y664570D01*
X998136Y664495D01*
X998181Y664420D01*
X998218Y664331D01*
X998301Y664136D01*
X998331Y664031D01*
X998353Y663918D01*
X998368Y663799D01*
X998375Y663671D01*
Y663656D01*
Y663611D01*
X998368Y663544D01*
X998361Y663454D01*
X998338Y663356D01*
X998316Y663236D01*
X998278Y663117D01*
X998233Y662989D01*
X998226Y662974D01*
X998203Y662929D01*
X998173Y662862D01*
X998121Y662779D01*
X998053Y662674D01*
X997971Y662555D01*
X997874Y662420D01*
X997761Y662285D01*
Y662277D01*
X997746Y662270D01*
X997724Y662247D01*
X997701Y662217D01*
X997664Y662180D01*
X997619Y662135D01*
X997566Y662083D01*
X997499Y662023D01*
X997431Y661955D01*
X997349Y661880D01*
X997259Y661790D01*
X997162Y661700D01*
X997049Y661603D01*
X996937Y661506D01*
X996802Y661393D01*
X996667Y661273D01*
X996660Y661266D01*
X996637Y661251D01*
X996607Y661221D01*
X996562Y661191D01*
X996517Y661146D01*
X996457Y661094D01*
X996330Y660981D01*
X996188Y660861D01*
X996053Y660741D01*
X995993Y660689D01*
X995940Y660636D01*
X995888Y660584D01*
X995850Y660546D01*
X995843Y660539D01*
X995820Y660517D01*
X995790Y660479D01*
X995745Y660427D01*
X995701Y660374D01*
X995648Y660307D01*
X995551Y660172D01*
X998383D01*
Y659490D01*
X994569D01*
Y659505D01*
Y659535D01*
Y659580D01*
X994576Y659647D01*
X994584Y659722D01*
X994599Y659805D01*
X994622Y659887D01*
X994651Y659977D01*
Y659985D01*
X994659Y659992D01*
X994667Y660014D01*
X994681Y660044D01*
X994711Y660119D01*
X994764Y660217D01*
X994831Y660337D01*
X994906Y660464D01*
X995004Y660599D01*
X995116Y660741D01*
X995124Y660749D01*
X995131Y660756D01*
X995154Y660779D01*
X995176Y660809D01*
X995251Y660891D01*
X995356Y660996D01*
X995483Y661124D01*
X995641Y661273D01*
X995828Y661438D01*
X996045Y661618D01*
X996053Y661626D01*
X996083Y661656D01*
X996135Y661693D01*
X996195Y661745D01*
X996270Y661813D01*
X996360Y661888D01*
X996457Y661970D01*
X996555Y662060D01*
X996765Y662255D01*
X996974Y662457D01*
X997072Y662562D01*
X997162Y662660D01*
X997244Y662749D01*
X997311Y662839D01*
X997319Y662847D01*
X997327Y662862D01*
X997342Y662884D01*
X997364Y662914D01*
X997386Y662959D01*
X997416Y663004D01*
X997484Y663117D01*
X997544Y663244D01*
X997596Y663386D01*
X997634Y663544D01*
X997649Y663619D01*
Y663694D01*
Y663701D01*
Y663716D01*
Y663731D01*
X997641Y663761D01*
X997634Y663843D01*
X997611Y663941D01*
X997574Y664053D01*
X997521Y664166D01*
X997446Y664286D01*
X997342Y664398D01*
X997327Y664413D01*
X997289Y664443D01*
X997222Y664488D01*
X997132Y664548D01*
X997019Y664600D01*
X996884Y664645D01*
X996727Y664675D01*
X996555Y664690D01*
X996502D01*
X996472Y664683D01*
X996427D01*
X996375Y664675D01*
X996263Y664653D01*
X996135Y664615D01*
X995993Y664563D01*
X995858Y664488D01*
X995738Y664383D01*
X995723Y664368D01*
X995693Y664331D01*
X995641Y664256D01*
X995588Y664166D01*
X995528Y664038D01*
X995476Y663896D01*
X995446Y663731D01*
X995431Y663536D01*
X994704Y663611D01*
Y663619D01*
X994711Y663649D01*
Y663686D01*
X994719Y663746D01*
X994734Y663813D01*
X994749Y663888D01*
X994771Y663978D01*
X994801Y664068D01*
X994869Y664270D01*
X994914Y664375D01*
X994966Y664473D01*
X995026Y664578D01*
X995094Y664675D01*
X995169Y664765D01*
X995258Y664847D01*
X995266Y664855D01*
X995281Y664863D01*
X995311Y664885D01*
X995348Y664915D01*
X995401Y664945D01*
X995461Y664982D01*
X995528Y665020D01*
X995611Y665065D01*
X995701Y665102D01*
X995798Y665140D01*
X995903Y665177D01*
X996023Y665207D01*
X996143Y665237D01*
X996277Y665260D01*
X996420Y665267D01*
X996570Y665275D01*
X996652D01*
X996705Y665267D01*
D02*
G37*
G36*
X847593Y677411D02*
X847847Y677390D01*
X847980Y677364D01*
X848107Y677332D01*
X848117D01*
X848139Y677321D01*
X848176Y677305D01*
X848223Y677289D01*
X848287Y677268D01*
X848356Y677242D01*
X848435Y677205D01*
X848525Y677168D01*
X848621Y677114D01*
X848716Y677062D01*
X848928Y676934D01*
X849140Y676776D01*
X849246Y676691D01*
X849347Y676590D01*
X849352Y676585D01*
X849373Y676563D01*
X849405Y676532D01*
X849442Y676484D01*
X849490Y676426D01*
X849548Y676357D01*
X849606Y676277D01*
X849670Y676193D01*
X849792Y675997D01*
X849850Y675885D01*
X849908Y675763D01*
X849956Y675642D01*
X850004Y675520D01*
X850035Y675382D01*
X850062Y675249D01*
Y675239D01*
Y675218D01*
X850072Y675175D01*
Y675122D01*
Y675059D01*
X850078Y674979D01*
X850072Y674889D01*
X850067Y674789D01*
X850057Y674683D01*
X850041Y674571D01*
X850014Y674449D01*
X849988Y674328D01*
X849951Y674195D01*
X849903Y674063D01*
X849845Y673920D01*
X849776Y673787D01*
X849119Y674190D01*
X849124Y674195D01*
X849135Y674216D01*
X849145Y674248D01*
X849166Y674290D01*
X849188Y674343D01*
X849214Y674402D01*
X849262Y674545D01*
X849309Y674709D01*
X849347Y674884D01*
X849362Y675069D01*
X849357Y675160D01*
X849352Y675249D01*
X849347Y675255D01*
X849352Y675271D01*
X849347Y675297D01*
X849336Y675329D01*
X849325Y675371D01*
X849309Y675419D01*
X849272Y675541D01*
X849209Y675679D01*
X849124Y675827D01*
X849013Y675981D01*
X848875Y676140D01*
X848870Y676145D01*
X848854Y676161D01*
X848827Y676187D01*
X848790Y676214D01*
X848753Y676251D01*
X848700Y676293D01*
X848637Y676336D01*
X848573Y676389D01*
X848425Y676484D01*
X848250Y676574D01*
X848059Y676648D01*
X847964Y676680D01*
X847858Y676701D01*
X847852Y676707D01*
X847831D01*
X847805Y676712D01*
X847762D01*
X847662Y676717D01*
X847529Y676712D01*
X847370Y676701D01*
X847190Y676669D01*
X847005Y676622D01*
X846814Y676537D01*
X846809Y676532D01*
X846793Y676526D01*
X846766Y676510D01*
X846729Y676495D01*
X846682Y676468D01*
X846629Y676436D01*
X846570Y676399D01*
X846512Y676362D01*
X846369Y676262D01*
X846215Y676150D01*
X846056Y676023D01*
X845903Y675880D01*
X845897Y675875D01*
X845882Y675859D01*
X845855Y675832D01*
X845818Y675795D01*
X845776Y675742D01*
X845728Y675684D01*
X845670Y675626D01*
X845617Y675552D01*
X845489Y675393D01*
X845368Y675218D01*
X845246Y675022D01*
X845145Y674826D01*
X845140Y674820D01*
X845134Y674805D01*
X845124Y674773D01*
X845113Y674730D01*
X845097Y674683D01*
X845076Y674630D01*
X845044Y674492D01*
X845018Y674328D01*
X845002Y674153D01*
X845007Y673967D01*
X845039Y673777D01*
X845044Y673771D01*
Y673750D01*
X845055Y673729D01*
X845066Y673687D01*
X845081Y673649D01*
X845103Y673596D01*
X845150Y673475D01*
X845219Y673332D01*
X845309Y673188D01*
X845415Y673040D01*
X845542Y672892D01*
X845548Y672887D01*
X845564Y672871D01*
X845585Y672849D01*
X845622Y672823D01*
X845670Y672786D01*
X845717Y672749D01*
X845776Y672701D01*
X845839Y672659D01*
X845993Y672569D01*
X846168Y672489D01*
X846263Y672447D01*
X846364Y672420D01*
X846464Y672394D01*
X846570Y672383D01*
X846581D01*
X846597Y672378D01*
X846671D01*
X846719Y672383D01*
X846787Y672388D01*
X846856Y672394D01*
X846936Y672410D01*
X847021Y672420D01*
X847116Y672441D01*
X847211Y672473D01*
X847317Y672505D01*
X847429Y672553D01*
X847540Y672600D01*
X847651Y672659D01*
X847773Y672728D01*
X848176Y672049D01*
X848170Y672044D01*
X848139Y672033D01*
X848091Y672007D01*
X848033Y671970D01*
X847959Y671938D01*
X847868Y671901D01*
X847773Y671859D01*
X847656Y671816D01*
X847540Y671774D01*
X847407Y671737D01*
X847280Y671705D01*
X847137Y671678D01*
X846994Y671652D01*
X846846Y671641D01*
X846697D01*
X846549Y671652D01*
X846538D01*
X846512Y671657D01*
X846475Y671663D01*
X846417Y671678D01*
X846348Y671694D01*
X846263Y671715D01*
X846178Y671747D01*
X846083Y671779D01*
X845966Y671822D01*
X845860Y671874D01*
X845738Y671933D01*
X845617Y672002D01*
X845495Y672081D01*
X845373Y672171D01*
X845251Y672272D01*
X845129Y672383D01*
X845124Y672388D01*
X845103Y672410D01*
X845066Y672447D01*
X845023Y672500D01*
X844976Y672558D01*
X844912Y672632D01*
X844848Y672706D01*
X844779Y672796D01*
X844642Y672998D01*
X844509Y673226D01*
X844451Y673347D01*
X844398Y673475D01*
X844350Y673596D01*
X844318Y673724D01*
Y673734D01*
X844313Y673750D01*
X844308Y673787D01*
X844303Y673846D01*
X844297Y673904D01*
X844287Y673978D01*
Y674063D01*
Y674158D01*
X844281Y674259D01*
X844292Y674365D01*
X844303Y674481D01*
X844324Y674608D01*
X844345Y674736D01*
X844377Y674863D01*
X844419Y675001D01*
X844467Y675133D01*
X844472Y675138D01*
X844477Y675165D01*
X844499Y675207D01*
X844525Y675255D01*
X844557Y675318D01*
X844589Y675393D01*
X844636Y675472D01*
X844689Y675567D01*
X844748Y675668D01*
X844817Y675769D01*
X844885Y675880D01*
X844960Y675986D01*
X845145Y676214D01*
X845346Y676436D01*
X845352Y676442D01*
X845373Y676463D01*
X845410Y676500D01*
X845458Y676537D01*
X845516Y676595D01*
X845585Y676654D01*
X845664Y676712D01*
X845754Y676781D01*
X845850Y676855D01*
X845956Y676929D01*
X846183Y677072D01*
X846427Y677199D01*
X846560Y677258D01*
X846692Y677305D01*
X846703D01*
X846724Y677316D01*
X846766Y677327D01*
X846819Y677337D01*
X846878Y677353D01*
X846957Y677369D01*
X847042Y677380D01*
X847142Y677395D01*
X847354Y677417D01*
X847593Y677411D01*
D02*
G37*
G36*
X724477Y681200D02*
X726628Y678180D01*
X725691D01*
X724237Y680233D01*
X724230Y680241D01*
X724215Y680263D01*
X724192Y680301D01*
X724162Y680346D01*
X724125Y680398D01*
X724088Y680458D01*
X723997Y680585D01*
X723990Y680570D01*
X723968Y680540D01*
X723938Y680488D01*
X723893Y680428D01*
X723803Y680285D01*
X723765Y680226D01*
X723728Y680173D01*
X722267Y678180D01*
X721352D01*
X723578Y681170D01*
X721615Y683942D01*
X722529D01*
X723578Y682466D01*
X723585Y682458D01*
X723593Y682443D01*
X723608Y682421D01*
X723630Y682391D01*
X723690Y682309D01*
X723758Y682204D01*
X723833Y682091D01*
X723908Y681972D01*
X723975Y681859D01*
X724035Y681762D01*
X724043Y681777D01*
X724072Y681814D01*
X724110Y681874D01*
X724162Y681956D01*
X724230Y682054D01*
X724312Y682166D01*
X724395Y682279D01*
X724492Y682406D01*
X725639Y683942D01*
X726470D01*
X724477Y681200D01*
D02*
G37*
G36*
X729055Y683957D02*
X729130Y683950D01*
X729213Y683942D01*
X729303Y683927D01*
X729400Y683905D01*
X729610Y683852D01*
X729715Y683815D01*
X729827Y683770D01*
X729939Y683717D01*
X730044Y683650D01*
X730142Y683583D01*
X730239Y683500D01*
X730247Y683493D01*
X730262Y683478D01*
X730284Y683455D01*
X730314Y683418D01*
X730352Y683373D01*
X730397Y683320D01*
X730434Y683260D01*
X730487Y683185D01*
X730531Y683110D01*
X730569Y683020D01*
X730651Y682826D01*
X730681Y682721D01*
X730704Y682608D01*
X730719Y682488D01*
X730726Y682361D01*
Y682346D01*
Y682301D01*
X730719Y682234D01*
X730711Y682144D01*
X730689Y682046D01*
X730666Y681926D01*
X730629Y681807D01*
X730584Y681679D01*
X730576Y681664D01*
X730554Y681619D01*
X730524Y681552D01*
X730471Y681469D01*
X730404Y681365D01*
X730322Y681245D01*
X730224Y681110D01*
X730112Y680975D01*
Y680967D01*
X730097Y680960D01*
X730074Y680937D01*
X730052Y680908D01*
X730014Y680870D01*
X729969Y680825D01*
X729917Y680773D01*
X729850Y680713D01*
X729782Y680645D01*
X729700Y680570D01*
X729610Y680480D01*
X729512Y680390D01*
X729400Y680293D01*
X729288Y680196D01*
X729153Y680083D01*
X729018Y679963D01*
X729010Y679956D01*
X728988Y679941D01*
X728958Y679911D01*
X728913Y679881D01*
X728868Y679836D01*
X728808Y679783D01*
X728681Y679671D01*
X728538Y679551D01*
X728403Y679431D01*
X728344Y679379D01*
X728291Y679326D01*
X728239Y679274D01*
X728201Y679237D01*
X728194Y679229D01*
X728171Y679206D01*
X728141Y679169D01*
X728096Y679117D01*
X728051Y679064D01*
X727999Y678997D01*
X727901Y678862D01*
X730734D01*
Y678180D01*
X726920D01*
Y678195D01*
Y678225D01*
Y678270D01*
X726927Y678337D01*
X726935Y678412D01*
X726950Y678495D01*
X726972Y678577D01*
X727002Y678667D01*
Y678674D01*
X727010Y678682D01*
X727017Y678705D01*
X727032Y678735D01*
X727062Y678809D01*
X727115Y678907D01*
X727182Y679027D01*
X727257Y679154D01*
X727354Y679289D01*
X727467Y679431D01*
X727474Y679439D01*
X727482Y679446D01*
X727504Y679469D01*
X727527Y679499D01*
X727602Y679581D01*
X727707Y679686D01*
X727834Y679814D01*
X727991Y679963D01*
X728179Y680128D01*
X728396Y680308D01*
X728403Y680315D01*
X728433Y680346D01*
X728486Y680383D01*
X728546Y680435D01*
X728621Y680503D01*
X728711Y680578D01*
X728808Y680660D01*
X728905Y680750D01*
X729115Y680945D01*
X729325Y681147D01*
X729423Y681252D01*
X729512Y681349D01*
X729595Y681440D01*
X729662Y681529D01*
X729670Y681537D01*
X729677Y681552D01*
X729692Y681574D01*
X729715Y681604D01*
X729737Y681649D01*
X729767Y681694D01*
X729835Y681807D01*
X729894Y681934D01*
X729947Y682076D01*
X729984Y682234D01*
X729999Y682309D01*
Y682384D01*
Y682391D01*
Y682406D01*
Y682421D01*
X729992Y682451D01*
X729984Y682533D01*
X729962Y682631D01*
X729924Y682743D01*
X729872Y682856D01*
X729797Y682975D01*
X729692Y683088D01*
X729677Y683103D01*
X729640Y683133D01*
X729572Y683178D01*
X729482Y683238D01*
X729370Y683290D01*
X729235Y683335D01*
X729078Y683365D01*
X728905Y683380D01*
X728853D01*
X728823Y683373D01*
X728778D01*
X728726Y683365D01*
X728613Y683343D01*
X728486Y683305D01*
X728344Y683253D01*
X728209Y683178D01*
X728089Y683073D01*
X728074Y683058D01*
X728044Y683020D01*
X727991Y682945D01*
X727939Y682856D01*
X727879Y682728D01*
X727827Y682586D01*
X727796Y682421D01*
X727782Y682226D01*
X727055Y682301D01*
Y682309D01*
X727062Y682339D01*
Y682376D01*
X727070Y682436D01*
X727085Y682504D01*
X727100Y682578D01*
X727122Y682668D01*
X727152Y682758D01*
X727219Y682961D01*
X727264Y683065D01*
X727317Y683163D01*
X727377Y683268D01*
X727444Y683365D01*
X727519Y683455D01*
X727609Y683538D01*
X727617Y683545D01*
X727632Y683552D01*
X727662Y683575D01*
X727699Y683605D01*
X727751Y683635D01*
X727812Y683672D01*
X727879Y683710D01*
X727961Y683755D01*
X728051Y683792D01*
X728149Y683830D01*
X728254Y683867D01*
X728373Y683897D01*
X728493Y683927D01*
X728628Y683950D01*
X728771Y683957D01*
X728920Y683965D01*
X729003D01*
X729055Y683957D01*
D02*
G37*
G36*
X539207Y624050D02*
X541358Y621030D01*
X540421D01*
X538967Y623083D01*
X538960Y623091D01*
X538945Y623113D01*
X538922Y623150D01*
X538892Y623195D01*
X538855Y623248D01*
X538817Y623308D01*
X538727Y623435D01*
X538720Y623420D01*
X538698Y623390D01*
X538668Y623338D01*
X538623Y623278D01*
X538533Y623135D01*
X538495Y623076D01*
X538458Y623023D01*
X536997Y621030D01*
X536082D01*
X538308Y624020D01*
X536345Y626792D01*
X537259D01*
X538308Y625316D01*
X538315Y625308D01*
X538323Y625294D01*
X538338Y625271D01*
X538360Y625241D01*
X538420Y625159D01*
X538488Y625054D01*
X538563Y624941D01*
X538638Y624822D01*
X538705Y624709D01*
X538765Y624612D01*
X538773Y624627D01*
X538802Y624664D01*
X538840Y624724D01*
X538892Y624807D01*
X538960Y624904D01*
X539042Y625016D01*
X539125Y625129D01*
X539222Y625256D01*
X540368Y626792D01*
X541200D01*
X539207Y624050D01*
D02*
G37*
G36*
X544415Y621030D02*
X543710D01*
Y625533D01*
X543695Y625526D01*
X543665Y625496D01*
X543605Y625443D01*
X543531Y625383D01*
X543433Y625308D01*
X543313Y625226D01*
X543186Y625136D01*
X543036Y625046D01*
X543028D01*
X543021Y625039D01*
X542999Y625024D01*
X542969Y625009D01*
X542886Y624964D01*
X542789Y624911D01*
X542676Y624851D01*
X542549Y624791D01*
X542422Y624731D01*
X542294Y624679D01*
Y625368D01*
X542302D01*
X542324Y625383D01*
X542354Y625398D01*
X542392Y625421D01*
X542444Y625443D01*
X542504Y625481D01*
X542646Y625556D01*
X542804Y625653D01*
X542984Y625773D01*
X543156Y625900D01*
X543328Y626043D01*
X543336Y626050D01*
X543351Y626058D01*
X543373Y626080D01*
X543403Y626110D01*
X543478Y626185D01*
X543576Y626290D01*
X543673Y626403D01*
X543778Y626537D01*
X543875Y626672D01*
X543958Y626815D01*
X544415D01*
Y621030D01*
D02*
G37*
G36*
X786750Y658364D02*
X785559Y657607D01*
X785551D01*
X785536Y657592D01*
X785506Y657577D01*
X785476Y657554D01*
X785431Y657524D01*
X785379Y657487D01*
X785266Y657412D01*
X785139Y657322D01*
X785012Y657232D01*
X784884Y657142D01*
X784772Y657052D01*
X784757Y657045D01*
X784727Y657015D01*
X784674Y656977D01*
X784622Y656925D01*
X784555Y656865D01*
X784487Y656798D01*
X784435Y656730D01*
X784382Y656663D01*
X784375Y656655D01*
X784367Y656633D01*
X784345Y656603D01*
X784322Y656558D01*
X784292Y656505D01*
X784270Y656445D01*
X784225Y656318D01*
Y656311D01*
X784217Y656296D01*
Y656266D01*
X784210Y656221D01*
X784202Y656161D01*
Y656086D01*
X784195Y656003D01*
Y655899D01*
Y655014D01*
X786750D01*
Y654250D01*
X780988D01*
Y656805D01*
Y656813D01*
Y656843D01*
Y656880D01*
Y656933D01*
X780995Y657000D01*
Y657067D01*
X781003Y657150D01*
X781010Y657240D01*
X781025Y657427D01*
X781055Y657622D01*
X781093Y657809D01*
X781115Y657899D01*
X781145Y657974D01*
Y657981D01*
X781153Y657989D01*
X781160Y658011D01*
X781175Y658042D01*
X781213Y658116D01*
X781273Y658206D01*
X781348Y658311D01*
X781445Y658416D01*
X781565Y658521D01*
X781700Y658618D01*
X781707D01*
X781715Y658626D01*
X781737Y658641D01*
X781767Y658656D01*
X781850Y658693D01*
X781954Y658738D01*
X782082Y658783D01*
X782232Y658821D01*
X782397Y658851D01*
X782569Y658858D01*
X782629D01*
X782674Y658851D01*
X782726Y658843D01*
X782786Y658836D01*
X782929Y658806D01*
X783093Y658761D01*
X783266Y658693D01*
X783348Y658648D01*
X783438Y658596D01*
X783521Y658529D01*
X783603Y658461D01*
X783610Y658454D01*
X783618Y658446D01*
X783640Y658416D01*
X783670Y658386D01*
X783700Y658341D01*
X783738Y658289D01*
X783783Y658229D01*
X783828Y658161D01*
X783873Y658079D01*
X783918Y657989D01*
X783963Y657884D01*
X784008Y657772D01*
X784045Y657652D01*
X784082Y657524D01*
X784112Y657382D01*
X784135Y657232D01*
X784142Y657247D01*
X784157Y657285D01*
X784187Y657337D01*
X784225Y657405D01*
X784322Y657554D01*
X784375Y657622D01*
X784427Y657689D01*
Y657697D01*
X784442Y657704D01*
X784480Y657749D01*
X784547Y657809D01*
X784637Y657899D01*
X784742Y657997D01*
X784877Y658101D01*
X785027Y658214D01*
X785191Y658326D01*
X786750Y659323D01*
Y658364D01*
D02*
G37*
G36*
Y661728D02*
X782247D01*
X782254Y661713D01*
X782284Y661683D01*
X782337Y661623D01*
X782397Y661548D01*
X782471Y661451D01*
X782554Y661331D01*
X782644Y661204D01*
X782734Y661054D01*
Y661046D01*
X782741Y661039D01*
X782756Y661016D01*
X782771Y660986D01*
X782816Y660904D01*
X782869Y660806D01*
X782929Y660694D01*
X782989Y660567D01*
X783048Y660439D01*
X783101Y660312D01*
X782411D01*
Y660319D01*
X782397Y660342D01*
X782382Y660372D01*
X782359Y660409D01*
X782337Y660462D01*
X782299Y660522D01*
X782224Y660664D01*
X782127Y660821D01*
X782007Y661001D01*
X781880Y661173D01*
X781737Y661346D01*
X781730Y661353D01*
X781722Y661368D01*
X781700Y661391D01*
X781670Y661421D01*
X781595Y661496D01*
X781490Y661593D01*
X781377Y661691D01*
X781243Y661796D01*
X781108Y661893D01*
X780965Y661975D01*
Y662432D01*
X786750D01*
Y661728D01*
D02*
G37*
%LPC*%
G36*
X887657Y677240D02*
X887575D01*
X887515Y677233D01*
X887440Y677225D01*
X887358Y677210D01*
X887260Y677188D01*
X887163Y677165D01*
X887050Y677135D01*
X886938Y677098D01*
X886818Y677053D01*
X886698Y676993D01*
X886578Y676925D01*
X886466Y676851D01*
X886354Y676761D01*
X886241Y676656D01*
X886234Y676648D01*
X886219Y676626D01*
X886189Y676596D01*
X886151Y676543D01*
X886114Y676483D01*
X886069Y676408D01*
X886016Y676319D01*
X885964Y676221D01*
X885912Y676101D01*
X885859Y675974D01*
X885814Y675832D01*
X885777Y675674D01*
X885739Y675509D01*
X885709Y675322D01*
X885694Y675127D01*
X885687Y674917D01*
Y674902D01*
Y674865D01*
X885694Y674812D01*
Y674730D01*
X885702Y674640D01*
X885717Y674528D01*
X885732Y674408D01*
X885754Y674280D01*
X885784Y674146D01*
X885822Y674003D01*
X885867Y673861D01*
X885919Y673718D01*
X885986Y673576D01*
X886061Y673441D01*
X886144Y673314D01*
X886241Y673194D01*
X886249Y673186D01*
X886264Y673171D01*
X886301Y673141D01*
X886339Y673104D01*
X886399Y673052D01*
X886466Y673007D01*
X886541Y672947D01*
X886623Y672894D01*
X886721Y672842D01*
X886833Y672782D01*
X886946Y672737D01*
X887073Y672692D01*
X887208Y672647D01*
X887350Y672617D01*
X887500Y672602D01*
X887657Y672595D01*
X887725D01*
X887807Y672602D01*
X887912Y672617D01*
X888025Y672632D01*
X888159Y672654D01*
X888294Y672692D01*
X888429Y672744D01*
X888422D01*
X888414Y672752D01*
X888369Y672782D01*
X888294Y672827D01*
X888197Y672872D01*
X888084Y672924D01*
X887957Y672984D01*
X887822Y673029D01*
X887672Y673074D01*
X887860Y673628D01*
X887867D01*
X887890Y673621D01*
X887927Y673606D01*
X887972Y673591D01*
X888025Y673576D01*
X888092Y673554D01*
X888167Y673524D01*
X888242Y673486D01*
X888414Y673411D01*
X888594Y673314D01*
X888774Y673201D01*
X888946Y673074D01*
X888954Y673082D01*
X888976Y673104D01*
X889006Y673141D01*
X889051Y673186D01*
X889104Y673254D01*
X889164Y673336D01*
X889223Y673426D01*
X889283Y673539D01*
X889343Y673659D01*
X889411Y673793D01*
X889463Y673943D01*
X889516Y674108D01*
X889561Y674288D01*
X889591Y674483D01*
X889613Y674693D01*
X889621Y674917D01*
Y674925D01*
Y674947D01*
Y674985D01*
Y675037D01*
X889613Y675097D01*
X889606Y675165D01*
X889598Y675247D01*
X889591Y675329D01*
X889561Y675524D01*
X889523Y675727D01*
X889463Y675936D01*
X889381Y676139D01*
Y676146D01*
X889373Y676161D01*
X889358Y676191D01*
X889336Y676229D01*
X889313Y676266D01*
X889283Y676319D01*
X889201Y676438D01*
X889104Y676566D01*
X888984Y676701D01*
X888849Y676828D01*
X888684Y676948D01*
X888677D01*
X888661Y676963D01*
X888639Y676978D01*
X888602Y676993D01*
X888564Y677015D01*
X888512Y677038D01*
X888452Y677068D01*
X888384Y677098D01*
X888234Y677150D01*
X888062Y677195D01*
X887867Y677225D01*
X887657Y677240D01*
D02*
G37*
G36*
X782569Y658071D02*
X782531D01*
X782502Y658064D01*
X782427Y658056D01*
X782329Y658034D01*
X782224Y657997D01*
X782112Y657944D01*
X781999Y657869D01*
X781895Y657772D01*
X781880Y657757D01*
X781850Y657712D01*
X781812Y657644D01*
X781760Y657539D01*
X781737Y657479D01*
X781707Y657412D01*
X781685Y657337D01*
X781670Y657247D01*
X781647Y657157D01*
X781640Y657060D01*
X781625Y656947D01*
Y656835D01*
Y655014D01*
X783536D01*
Y656648D01*
Y656655D01*
Y656670D01*
Y656700D01*
Y656738D01*
Y656775D01*
X783528Y656828D01*
X783521Y656947D01*
X783513Y657075D01*
X783491Y657217D01*
X783468Y657345D01*
X783431Y657465D01*
X783423Y657479D01*
X783408Y657517D01*
X783386Y657569D01*
X783348Y657637D01*
X783303Y657704D01*
X783243Y657779D01*
X783168Y657854D01*
X783086Y657914D01*
X783078Y657922D01*
X783041Y657937D01*
X782996Y657967D01*
X782929Y657997D01*
X782854Y658019D01*
X782764Y658049D01*
X782674Y658064D01*
X782569Y658071D01*
D02*
G37*
%LPD*%
D10*
X990380Y477860D02*
Y500860D01*
X544880Y477860D02*
Y500860D01*
Y477860D02*
X990380D01*
X998380Y500860D02*
Y617860D01*
X536380D02*
X998380D01*
X536380Y500860D02*
X998380D01*
X536380D02*
Y617860D01*
X689610Y661670D02*
Y687070D01*
Y661670D02*
X715010D01*
Y636270D02*
Y687070D01*
X537210Y636270D02*
X715010D01*
X537210D02*
Y687070D01*
X715010D01*
X911400Y684290D02*
X921400D01*
Y676290D02*
Y684290D01*
X911400Y654290D02*
X921400D01*
Y662290D01*
D19*
X929150Y677790D02*
G03*
X929150Y677790I-1250J0D01*
G01*
M02*
