G04 Layer_Color=8388736*
%FSLAX44Y44*%
%MOMM*%
G71*
G01*
G75*
%ADD20C,2.0000*%
%ADD21R,1.1532X1.1532*%
%ADD22P,1.4187X4X90.0*%
%ADD23R,1.0532X0.8032*%
%ADD24C,1.1000*%
%ADD25R,2.5032X2.0032*%
%ADD26O,2.5032X2.0032*%
%ADD27C,1.8032*%
%ADD28R,1.8032X1.8032*%
D20*
X987980Y681990D02*
G03*
X987980Y681990I-5000J0D01*
G01*
X523160Y518160D02*
G03*
X523160Y518160I-5000J0D01*
G01*
D21*
X793750Y674000D02*
D03*
Y659500D02*
D03*
D22*
X834167Y672053D02*
D03*
X844773Y661447D02*
D03*
D23*
X903650Y678790D02*
D03*
Y659790D02*
D03*
X925150Y669290D02*
D03*
D24*
X982980Y681990D02*
D03*
X518160Y518160D02*
D03*
D25*
X557380Y530860D02*
D03*
D26*
Y600860D02*
D03*
X592380D02*
D03*
Y530860D02*
D03*
X627380Y600860D02*
D03*
Y530860D02*
D03*
X662380Y600860D02*
D03*
Y530860D02*
D03*
X697380Y600860D02*
D03*
Y530860D02*
D03*
X872380D02*
D03*
Y600860D02*
D03*
X837380Y530860D02*
D03*
Y600860D02*
D03*
X802380Y530860D02*
D03*
Y600860D02*
D03*
X767380Y530860D02*
D03*
Y600860D02*
D03*
X732380D02*
D03*
Y530860D02*
D03*
X907380Y600860D02*
D03*
Y530860D02*
D03*
X942380Y530860D02*
D03*
Y600860D02*
D03*
X977380Y530860D02*
D03*
Y600860D02*
D03*
D27*
X549910Y674370D02*
D03*
X575310D02*
D03*
X600710D02*
D03*
X626110D02*
D03*
X651510D02*
D03*
X676910D02*
D03*
X549910Y648970D02*
D03*
X575310D02*
D03*
X600710D02*
D03*
X626110D02*
D03*
X651510D02*
D03*
X676910D02*
D03*
X702310D02*
D03*
D28*
Y674370D02*
D03*
M02*
