G04 Layer_Physical_Order=1*
G04 Layer_Color=255*
%FSLAX44Y44*%
%MOMM*%
G71*
G01*
G75*
%ADD10C,0.2000*%
%ADD11R,0.9500X0.9500*%
%ADD12P,1.1314X4X90.0*%
%ADD13R,0.8500X0.6000*%
%ADD14C,1.0000*%
%ADD15R,2.3000X1.8000*%
%ADD16O,2.3000X1.8000*%
%ADD17C,1.6000*%
%ADD18R,1.6000X1.6000*%
D10*
X992980Y681990D02*
G03*
X992980Y681990I-10000J0D01*
G01*
X528160Y518160D02*
G03*
X528160Y518160I-10000J0D01*
G01*
D11*
X793750Y674000D02*
D03*
Y659500D02*
D03*
D12*
X834167Y672053D02*
D03*
X844773Y661447D02*
D03*
D13*
X903650Y678790D02*
D03*
Y659790D02*
D03*
X925150Y669290D02*
D03*
D14*
X982980Y681990D02*
D03*
X518160Y518160D02*
D03*
D15*
X557380Y530860D02*
D03*
D16*
Y600860D02*
D03*
X592380D02*
D03*
Y530860D02*
D03*
X627380Y600860D02*
D03*
Y530860D02*
D03*
X662380Y600860D02*
D03*
Y530860D02*
D03*
X697380Y600860D02*
D03*
Y530860D02*
D03*
X872380D02*
D03*
Y600860D02*
D03*
X837380Y530860D02*
D03*
Y600860D02*
D03*
X802380Y530860D02*
D03*
Y600860D02*
D03*
X767380Y530860D02*
D03*
Y600860D02*
D03*
X732380D02*
D03*
Y530860D02*
D03*
X907380Y600860D02*
D03*
Y530860D02*
D03*
X942380Y530860D02*
D03*
Y600860D02*
D03*
X977380Y530860D02*
D03*
Y600860D02*
D03*
D17*
X549910Y674370D02*
D03*
X575310D02*
D03*
X600710D02*
D03*
X626110D02*
D03*
X651510D02*
D03*
X676910D02*
D03*
X549910Y648970D02*
D03*
X575310D02*
D03*
X600710D02*
D03*
X626110D02*
D03*
X651510D02*
D03*
X676910D02*
D03*
X702310D02*
D03*
D18*
Y674370D02*
D03*
M02*
