M48
;Layer_Color=9474304
;FILE_FORMAT=4:4
METRIC,LZ
;TYPE=PLATED
T1F00S00C1.1000
%
T01
X0080238Y0053086
X0083738
X0087238
X0090738
X0094238Y0053086
X0097738
Y0060086
X0094238Y0060086
X0090738Y0060086
X0087238
X0083738
X0080238
X0076738
X0073238
X0069738
X0066238
X0062738
X0059238
X0055738
X0054991Y0064897
Y0067437
X0057531
X0060071
X0062611
X0065151
X0067691
X0070231
Y0064897
X0067691
X0065151
X0062611
X0060071
X0057531
X0059238Y0053086
X0055738
X0062738
X0066238
X0069738
X0073238
X0076738
M30
